<svg width="171" height="56" viewBox="0 0 171 56" fill="none" xmlns="http://www.w3.org/2000/svg">
<rect x="-0.000366211" y="-6.10352e-05" width="171" height="56" rx="8" fill="url(#paint0_linear_2_3111)"/>
<g filter="url(#filter0_d_2_3111)">
<path d="M45.8599 15.493C43.2977 14.3369 40.5753 13.496 37.7141 13.002C37.6607 13.002 37.6073 13.002 37.586 13.065C37.2336 13.6852 36.8386 14.484 36.5717 15.1147C33.4757 14.6627 30.433 14.6627 27.4223 15.1147C27.1447 14.463 26.7497 13.6747 26.3547 13.065C26.3227 13.023 26.28 12.9915 26.2266 13.002C23.7711 13.4855 20.6323 14.3684 18.1127 15.493C18.0914 15.493 18.07 15.5141 18.0594 15.5351C12.8281 23.208 11.4402 30.5656 12.1875 37.9232C12.1875 37.9547 12.2089 37.9968 12.2409 38.0283C15.6572 40.5089 18.9668 42.0224 22.2337 42.9999C22.2871 42.9999 22.3405 42.9999 22.3725 42.9579C23.1412 41.9278 23.8245 40.8347 24.4223 39.6785C24.4543 39.6154 24.4223 39.5314 24.3476 39.5103C23.28 39.0899 22.2124 38.6064 21.2195 38.0388C21.1448 37.9968 21.1341 37.8811 21.2195 37.8286C21.433 37.6709 21.6465 37.5133 21.8387 37.3556C21.8707 37.3241 21.9241 37.3241 21.9668 37.3346C28.5219 40.2776 35.6322 40.2776 42.0379 37.3346C42.0806 37.3136 42.134 37.3241 42.166 37.3451C42.3688 37.5133 42.5717 37.6709 42.7852 37.8286C42.86 37.8811 42.8493 37.9968 42.7852 38.0388C41.7923 38.6169 40.7568 39.0899 39.6571 39.5103C39.5824 39.5419 39.5504 39.6154 39.5931 39.689C40.1909 40.8452 40.8849 41.9278 41.6215 42.9474C41.6535 42.9894 41.7069 43.0104 41.7603 42.9894C45.0272 41.9909 48.3475 40.4878 51.7745 38.0178C51.8065 37.9968 51.8279 37.9652 51.8279 37.9127C52.6606 29.4094 50.4293 22.0413 45.9133 15.5246C45.9133 15.5036 45.8813 15.4825 45.8599 15.4825V15.493ZM25.3618 33.4666C23.3334 33.4666 21.7319 31.6797 21.7319 29.4725C21.7319 27.2652 23.3334 25.4783 25.3618 25.4783C27.3903 25.4783 28.9917 27.2652 28.9917 29.4725C28.9917 31.6797 27.3903 33.4666 25.3618 33.4666ZM38.7069 33.4666C36.6785 33.4666 35.0771 31.6797 35.0771 29.4725C35.0771 27.2652 36.6785 25.4783 38.7069 25.4783C40.7354 25.4783 42.3368 27.2652 42.3368 29.4725C42.3368 31.6797 40.7354 33.4666 38.7069 33.4666Z" fill="#5865F2"/>
</g>
<g filter="url(#filter1_d_2_3111)">
<path d="M65.8008 12.8636H67.5508V21.1136C67.5508 21.8598 67.403 22.498 67.1076 23.0283C66.8159 23.5586 66.4049 23.9639 65.8746 24.2443C65.3443 24.5208 64.7231 24.659 64.011 24.659C63.3557 24.659 62.7667 24.5397 62.244 24.3011C61.725 24.0624 61.314 23.7158 61.011 23.2613C60.7118 22.803 60.5621 22.2461 60.5621 21.5908H62.3065C62.3065 21.9128 62.3803 22.1912 62.528 22.4261C62.6796 22.6609 62.886 22.8446 63.1474 22.9772C63.4125 23.106 63.7155 23.1704 64.0565 23.1704C64.4277 23.1704 64.7421 23.0927 64.9996 22.9374C65.261 22.7783 65.4599 22.5454 65.5962 22.2386C65.7326 21.9318 65.8008 21.5568 65.8008 21.1136V12.8636ZM73.6459 24.6761C72.8278 24.6761 72.1137 24.4886 71.5039 24.1136C70.894 23.7386 70.4206 23.2139 70.0834 22.5397C69.7463 21.8655 69.5778 21.0776 69.5778 20.1761C69.5778 19.2708 69.7463 18.4791 70.0834 17.8011C70.4206 17.123 70.894 16.5965 71.5039 16.2215C72.1137 15.8465 72.8278 15.659 73.6459 15.659C74.4641 15.659 75.1781 15.8465 75.788 16.2215C76.3978 16.5965 76.8713 17.123 77.2084 17.8011C77.5456 18.4791 77.7141 19.2708 77.7141 20.1761C77.7141 21.0776 77.5456 21.8655 77.2084 22.5397C76.8713 23.2139 76.3978 23.7386 75.788 24.1136C75.1781 24.4886 74.4641 24.6761 73.6459 24.6761ZM73.6516 23.2499C74.1819 23.2499 74.6213 23.1098 74.9698 22.8295C75.3183 22.5492 75.5759 22.1761 75.7425 21.7102C75.913 21.2443 75.9982 20.731 75.9982 20.1704C75.9982 19.6136 75.913 19.1022 75.7425 18.6363C75.5759 18.1666 75.3183 17.7897 74.9698 17.5056C74.6213 17.2215 74.1819 17.0795 73.6516 17.0795C73.1175 17.0795 72.6743 17.2215 72.3221 17.5056C71.9736 17.7897 71.7141 18.1666 71.5437 18.6363C71.377 19.1022 71.2937 19.6136 71.2937 20.1704C71.2937 20.731 71.377 21.2443 71.5437 21.7102C71.7141 22.1761 71.9736 22.5492 72.3221 22.8295C72.6743 23.1098 73.1175 23.2499 73.6516 23.2499ZM79.6104 24.4999V15.7727H81.3093V24.4999H79.6104ZM80.4684 14.4261C80.1729 14.4261 79.9191 14.3276 79.707 14.1306C79.4987 13.9299 79.3945 13.6912 79.3945 13.4147C79.3945 13.1344 79.4987 12.8958 79.707 12.6988C79.9191 12.498 80.1729 12.3977 80.4684 12.3977C80.7638 12.3977 81.0157 12.498 81.2241 12.6988C81.4362 12.8958 81.5422 13.1344 81.5422 13.4147C81.5422 13.6912 81.4362 13.9299 81.2241 14.1306C81.0157 14.3276 80.7638 14.4261 80.4684 14.4261ZM85.2937 19.3181V24.4999H83.5948V15.7727H85.2255V17.1931H85.3334C85.5342 16.731 85.8486 16.3598 86.2766 16.0795C86.7084 15.7992 87.252 15.659 87.9073 15.659C88.502 15.659 89.0228 15.784 89.4698 16.034C89.9168 16.2802 90.2634 16.6477 90.5096 17.1363C90.7558 17.6249 90.8789 18.2291 90.8789 18.9488V24.4999H89.18V19.1533C89.18 18.5208 89.0153 18.0265 88.6857 17.6704C88.3562 17.3105 87.9035 17.1306 87.3278 17.1306C86.9338 17.1306 86.5834 17.2158 86.2766 17.3863C85.9736 17.5568 85.7331 17.8068 85.555 18.1363C85.3808 18.4621 85.2937 18.856 85.2937 19.3181ZM101.466 15.7727V17.1363H96.6985V15.7727H101.466ZM97.9769 13.6818H99.6758V21.9374C99.6758 22.267 99.725 22.5151 99.8235 22.6818C99.922 22.8446 100.049 22.9564 100.204 23.017C100.363 23.0738 100.536 23.1022 100.721 23.1022C100.858 23.1022 100.977 23.0927 101.079 23.0738C101.181 23.0549 101.261 23.0397 101.318 23.0283L101.625 24.4318C101.526 24.4696 101.386 24.5075 101.204 24.5454C101.022 24.5871 100.795 24.6098 100.522 24.6136C100.075 24.6211 99.6587 24.5416 99.2723 24.3749C98.886 24.2083 98.5735 23.9507 98.3348 23.6022C98.0962 23.2537 97.9769 22.8162 97.9769 22.2897V13.6818ZM105.231 19.3181V24.4999H103.532V12.8636H105.208V17.1931H105.316C105.521 16.7234 105.833 16.3503 106.254 16.0738C106.674 15.7973 107.224 15.659 107.902 15.659C108.5 15.659 109.023 15.7821 109.47 16.0283C109.921 16.2746 110.269 16.642 110.515 17.1306C110.765 17.6155 110.89 18.2215 110.89 18.9488V24.4999H109.191V19.1533C109.191 18.5132 109.027 18.017 108.697 17.6647C108.368 17.3086 107.909 17.1306 107.322 17.1306C106.921 17.1306 106.561 17.2158 106.243 17.3863C105.928 17.5568 105.68 17.8068 105.498 18.1363C105.32 18.4621 105.231 18.856 105.231 19.3181ZM116.919 24.6761C116.059 24.6761 115.318 24.4924 114.697 24.1249C114.08 23.7537 113.602 23.2329 113.265 22.5624C112.932 21.8882 112.765 21.0984 112.765 20.1931C112.765 19.2992 112.932 18.5113 113.265 17.8295C113.602 17.1477 114.072 16.6155 114.674 16.2329C115.28 15.8503 115.989 15.659 116.799 15.659C117.292 15.659 117.769 15.7405 118.231 15.9033C118.693 16.0662 119.108 16.3219 119.475 16.6704C119.843 17.0189 120.133 17.4715 120.345 18.0283C120.557 18.5814 120.663 19.2537 120.663 20.0454V20.6477H113.725V19.3749H118.998C118.998 18.928 118.907 18.5321 118.725 18.1874C118.544 17.839 118.288 17.5643 117.958 17.3636C117.633 17.1628 117.25 17.0624 116.811 17.0624C116.333 17.0624 115.917 17.1799 115.561 17.4147C115.208 17.6458 114.936 17.9488 114.743 18.3238C114.553 18.695 114.458 19.0984 114.458 19.534V20.5283C114.458 21.1117 114.561 21.6079 114.765 22.017C114.974 22.4261 115.263 22.7386 115.635 22.9545C116.006 23.1666 116.439 23.2727 116.936 23.2727C117.258 23.2727 117.551 23.2272 117.816 23.1363C118.082 23.0416 118.311 22.9015 118.504 22.7158C118.697 22.5302 118.845 22.3011 118.947 22.0283L120.555 22.3181C120.426 22.7916 120.195 23.2064 119.862 23.5624C119.532 23.9147 119.118 24.1893 118.618 24.3863C118.121 24.5795 117.555 24.6761 116.919 24.6761Z" fill="#E8E8E8"/>
<path d="M72.158 35.6157H69.1395C69.0993 35.3058 69.0168 35.0261 68.892 34.7766C68.7673 34.527 68.6023 34.3137 68.397 34.1367C68.1917 33.9596 67.9483 33.8247 67.6665 33.7322C67.3888 33.6356 67.081 33.5873 66.7429 33.5873C66.1432 33.5873 65.6261 33.7342 65.1914 34.028C64.7608 34.3218 64.4287 34.7464 64.1953 35.3018C63.9659 35.8572 63.8512 36.5293 63.8512 37.3181C63.8512 38.1391 63.9679 38.8274 64.2013 39.3827C64.4388 39.9341 64.7708 40.3507 65.1974 40.6324C65.6281 40.9101 66.1372 41.0489 66.7248 41.0489C67.0548 41.0489 67.3546 41.0067 67.6243 40.9222C67.898 40.8376 68.1374 40.7149 68.3427 40.5539C68.552 40.3889 68.723 40.1897 68.8558 39.9563C68.9926 39.7188 69.0872 39.4512 69.1395 39.1533L72.158 39.1715C72.1057 39.7188 71.9467 40.2581 71.6811 40.7894C71.4195 41.3206 71.0593 41.8056 70.6005 42.2443C70.1417 42.6789 69.5823 43.025 68.9222 43.2826C68.2662 43.5402 67.5136 43.669 66.6644 43.669C65.5456 43.669 64.5434 43.4235 63.658 42.9325C62.7766 42.4374 62.0804 41.717 61.5692 40.7712C61.0581 39.8255 60.8025 38.6744 60.8025 37.3181C60.8025 35.9578 61.0621 34.8047 61.5813 33.859C62.1005 32.9132 62.8028 32.1948 63.6882 31.7038C64.5736 31.2128 65.5657 30.9673 66.6644 30.9673C67.413 30.9673 68.1052 31.0719 68.7411 31.2812C69.377 31.4864 69.9364 31.7883 70.4194 32.1867C70.9023 32.5811 71.2947 33.0661 71.5966 33.6416C71.8984 34.2171 72.0856 34.8752 72.158 35.6157ZM78.1965 43.675C77.2225 43.675 76.3854 43.4758 75.6851 43.0773C74.9888 42.6749 74.4515 42.1155 74.0732 41.3991C73.6989 40.6787 73.5118 39.8436 73.5118 38.8938C73.5118 37.9399 73.6989 37.1048 74.0732 36.3884C74.4515 35.668 74.9888 35.1086 75.6851 34.7102C76.3854 34.3077 77.2225 34.1065 78.1965 34.1065C79.1704 34.1065 80.0055 34.3077 80.7018 34.7102C81.4021 35.1086 81.9393 35.668 82.3136 36.3884C82.692 37.1048 82.8811 37.9399 82.8811 38.8938C82.8811 39.8436 82.692 40.6787 82.3136 41.3991C81.9393 42.1155 81.4021 42.6749 80.7018 43.0773C80.0055 43.4758 79.1704 43.675 78.1965 43.675ZM78.2146 41.4474C78.5687 41.4474 78.8686 41.3387 79.1141 41.1214C79.3596 40.9041 79.5467 40.6022 79.6755 40.2158C79.8083 39.8295 79.8747 39.3827 79.8747 38.8756C79.8747 38.3605 79.8083 37.9097 79.6755 37.5234C79.5467 37.137 79.3596 36.8352 79.1141 36.6178C78.8686 36.4005 78.5687 36.2918 78.2146 36.2918C77.8483 36.2918 77.5384 36.4005 77.2849 36.6178C77.0353 36.8352 76.8442 37.137 76.7114 37.5234C76.5826 37.9097 76.5182 38.3605 76.5182 38.8756C76.5182 39.3827 76.5826 39.8295 76.7114 40.2158C76.8442 40.6022 77.0353 40.9041 77.2849 41.1214C77.5384 41.3387 77.8483 41.4474 78.2146 41.4474ZM84.3934 43.4999V34.2272H87.2005V35.9296H87.3032C87.4963 35.3662 87.8223 34.9215 88.2811 34.5955C88.7399 34.2695 89.2873 34.1065 89.9232 34.1065C90.5671 34.1065 91.1185 34.2715 91.5773 34.6015C92.0361 34.9315 92.3279 35.3742 92.4527 35.9296H92.5493C92.7223 35.3783 93.0604 34.9376 93.5635 34.6075C94.0665 34.2735 94.6602 34.1065 95.3443 34.1065C96.2217 34.1065 96.9341 34.3882 97.4814 34.9516C98.0288 35.5111 98.3024 36.2798 98.3024 37.2577V43.4999H95.3504V37.9339C95.3504 37.4711 95.2317 37.1189 94.9942 36.8774C94.7568 36.6319 94.4489 36.5092 94.0706 36.5092C93.6641 36.5092 93.3441 36.642 93.1107 36.9076C92.8813 37.1692 92.7666 37.5214 92.7666 37.9641V43.4999H89.9292V37.9037C89.9292 37.4731 89.8125 37.133 89.5791 36.8835C89.3457 36.6339 89.0378 36.5092 88.6554 36.5092C88.3979 36.5092 88.1705 36.5716 87.9733 36.6963C87.7761 36.8171 87.6211 36.9901 87.5084 37.2155C87.3997 37.4409 87.3454 37.7065 87.3454 38.0124V43.4999H84.3934ZM100.132 43.4999V34.2272H102.939V35.9296H103.041C103.235 35.3662 103.561 34.9215 104.019 34.5955C104.478 34.2695 105.026 34.1065 105.661 34.1065C106.305 34.1065 106.857 34.2715 107.316 34.6015C107.774 34.9315 108.066 35.3742 108.191 35.9296H108.288C108.461 35.3783 108.799 34.9376 109.302 34.6075C109.805 34.2735 110.398 34.1065 111.083 34.1065C111.96 34.1065 112.672 34.3882 113.22 34.9516C113.767 35.5111 114.041 36.2798 114.041 37.2577V43.4999H111.089V37.9339C111.089 37.4711 110.97 37.1189 110.732 36.8774C110.495 36.6319 110.187 36.5092 109.809 36.5092C109.402 36.5092 109.082 36.642 108.849 36.9076C108.62 37.1692 108.505 37.5214 108.505 37.9641V43.4999H105.668V37.9037C105.668 37.4731 105.551 37.133 105.317 36.8835C105.084 36.6339 104.776 36.5092 104.394 36.5092C104.136 36.5092 103.909 36.5716 103.712 36.6963C103.514 36.8171 103.359 36.9901 103.247 37.2155C103.138 37.4409 103.084 37.7065 103.084 38.0124V43.4999H100.132ZM121.853 39.4974V34.2272H124.799V43.4999H121.985V41.7734H121.889C121.683 42.3408 121.333 42.7916 120.838 43.1256C120.347 43.4557 119.754 43.6207 119.057 43.6207C118.426 43.6207 117.87 43.4758 117.391 43.186C116.912 42.8962 116.54 42.4918 116.274 41.9726C116.009 41.4494 115.874 40.8376 115.87 40.1374V34.2272H118.822V39.5578C118.826 40.0609 118.959 40.4573 119.22 40.7471C119.482 41.0369 119.838 41.1818 120.289 41.1818C120.583 41.1818 120.846 41.1174 121.08 40.9886C121.317 40.8558 121.504 40.6646 121.641 40.4151C121.782 40.1615 121.853 39.8556 121.853 39.4974ZM129.63 38.2116V43.4999H126.678V34.2272H129.485V35.9296H129.587C129.793 35.3622 130.143 34.9174 130.638 34.5955C131.133 34.2695 131.722 34.1065 132.407 34.1065C133.059 34.1065 133.624 34.2534 134.103 34.5472C134.586 34.8369 134.96 35.2434 135.226 35.7666C135.495 36.2858 135.628 36.8935 135.624 37.5898V43.4999H132.672V38.1693C132.676 37.6542 132.545 37.2517 132.28 36.9619C132.018 36.6722 131.654 36.5273 131.187 36.5273C130.877 36.5273 130.604 36.5957 130.366 36.7325C130.133 36.8653 129.952 37.0565 129.823 37.306C129.698 37.5556 129.634 37.8574 129.63 38.2116ZM137.452 43.4999V34.2272H140.404V43.4999H137.452ZM138.931 33.1466C138.516 33.1466 138.16 33.0098 137.862 32.7361C137.565 32.4584 137.416 32.1243 137.416 31.734C137.416 31.3476 137.565 31.0176 137.862 30.7439C138.16 30.4662 138.516 30.3274 138.931 30.3274C139.35 30.3274 139.706 30.4662 140 30.7439C140.297 31.0176 140.446 31.3476 140.446 31.734C140.446 32.1243 140.297 32.4584 140 32.7361C139.706 33.0098 139.35 33.1466 138.931 33.1466ZM147.517 34.2272V36.4005H141.667V34.2272H147.517ZM142.893 32.0056H145.845V40.5841C145.845 40.7652 145.873 40.9121 145.929 41.0248C145.99 41.1335 146.076 41.2119 146.189 41.2602C146.302 41.3045 146.436 41.3266 146.593 41.3266C146.706 41.3266 146.825 41.3166 146.95 41.2965C147.078 41.2723 147.175 41.2522 147.239 41.2361L147.686 43.3671C147.545 43.4074 147.346 43.4577 147.088 43.518C146.835 43.5784 146.531 43.6166 146.177 43.6327C145.485 43.6649 144.891 43.5845 144.396 43.3913C143.905 43.1941 143.529 42.8882 143.267 42.4737C143.009 42.0591 142.885 41.5379 142.893 40.9101V32.0056ZM150.828 46.9772C150.474 46.9772 150.14 46.949 149.826 46.8927C149.512 46.8404 149.243 46.7699 149.017 46.6814L149.669 44.5383C149.959 44.6349 150.221 44.6912 150.454 44.7073C150.691 44.7234 150.895 44.6852 151.064 44.5926C151.237 44.5041 151.37 44.3451 151.462 44.1157L151.577 43.838L148.281 34.2272H151.372L153.08 40.8437H153.177L154.909 34.2272H158.018L154.523 44.3874C154.354 44.8945 154.114 45.3412 153.804 45.7276C153.499 46.1179 153.102 46.4238 152.615 46.6452C152.132 46.8665 151.537 46.9772 150.828 46.9772Z" fill="#5865F2"/>
</g>
<rect x="1.04963" y="1.04994" width="168.9" height="53.9" rx="6.95" stroke="white" stroke-opacity="0.15" stroke-width="2.1"/>
<defs>
<filter id="filter0_d_2_3111" x="6.28535" y="2.28565" width="51.4286" height="51.4286" filterUnits="userSpaceOnUse" color-interpolation-filters="sRGB">
<feFlood flood-opacity="0" result="BackgroundImageFix"/>
<feColorMatrix in="SourceAlpha" type="matrix" values="0 0 0 0 0 0 0 0 0 0 0 0 0 0 0 0 0 0 127 0" result="hardAlpha"/>
<feOffset/>
<feGaussianBlur stdDeviation="2.85714"/>
<feComposite in2="hardAlpha" operator="out"/>
<feColorMatrix type="matrix" values="0 0 0 0 0 0 0 0 0 0 0 0 0 0 0 0 0 0 0.25 0"/>
<feBlend mode="normal" in2="BackgroundImageFix" result="effect1_dropShadow_2_3111"/>
<feBlend mode="normal" in="SourceGraphic" in2="effect1_dropShadow_2_3111" result="shape"/>
</filter>
<filter id="filter1_d_2_3111" x="54.3996" y="3.89994" width="110.2" height="48.6773" filterUnits="userSpaceOnUse" color-interpolation-filters="sRGB">
<feFlood flood-opacity="0" result="BackgroundImageFix"/>
<feColorMatrix in="SourceAlpha" type="matrix" values="0 0 0 0 0 0 0 0 0 0 0 0 0 0 0 0 0 0 127 0" result="hardAlpha"/>
<feOffset/>
<feGaussianBlur stdDeviation="2.8"/>
<feComposite in2="hardAlpha" operator="out"/>
<feColorMatrix type="matrix" values="0 0 0 0 0 0 0 0 0 0 0 0 0 0 0 0 0 0 0.25 0"/>
<feBlend mode="normal" in2="BackgroundImageFix" result="effect1_dropShadow_2_3111"/>
<feBlend mode="normal" in="SourceGraphic" in2="effect1_dropShadow_2_3111" result="shape"/>
</filter>
<linearGradient id="paint0_linear_2_3111" x1="85.4996" y1="-6.10352e-05" x2="85.4996" y2="55.9999" gradientUnits="userSpaceOnUse">
<stop stop-color="#1B1D31"/>
<stop offset="1" stop-color="#11121F"/>
</linearGradient>
</defs>
</svg>
